<svg aria-roledescription="pie" role="graphics-document document" style="max-width: 100%;" viewBox="0 0 652.8251953125 450" xmlns="http://www.w3.org/2000/svg" width="100%" id="graph-div" height="100%" xmlns:xlink="http://www.w3.org/1999/xlink"><style>@import url("https://cdnjs.cloudflare.com/ajax/libs/font-awesome/6.5.1/css/all.min.css");'</style><style>#graph-div{font-family:"trebuchet ms",verdana,arial,sans-serif;font-size:16px;fill:#ccc;}#graph-div .error-icon{fill:#a44141;}#graph-div .error-text{fill:#ddd;stroke:#ddd;}#graph-div .edge-thickness-normal{stroke-width:2px;}#graph-div .edge-thickness-thick{stroke-width:3.5px;}#graph-div .edge-pattern-solid{stroke-dasharray:0;}#graph-div .edge-pattern-dashed{stroke-dasharray:3;}#graph-div .edge-pattern-dotted{stroke-dasharray:2;}#graph-div .marker{fill:lightgrey;stroke:lightgrey;}#graph-div .marker.cross{stroke:lightgrey;}#graph-div svg{font-family:"trebuchet ms",verdana,arial,sans-serif;font-size:16px;}#graph-div .pieCircle{stroke:black;stroke-width:2px;opacity:0.7;}#graph-div .pieOuterCircle{stroke:black;stroke-width:2px;fill:none;}#graph-div .pieTitleText{text-anchor:middle;font-size:25px;fill:hsl(28.5714285714, 17.3553719008%, 86.2745098039%);font-family:"trebuchet ms",verdana,arial,sans-serif;}#graph-div .slice{font-family:"trebuchet ms",verdana,arial,sans-serif;fill:#ccc;font-size:17px;}#graph-div .legend text{fill:hsl(28.5714285714, 17.3553719008%, 86.2745098039%);font-family:"trebuchet ms",verdana,arial,sans-serif;font-size:17px;}#graph-div :root{--mermaid-font-family:"trebuchet ms",verdana,arial,sans-serif;}</style><g></g><g transform="translate(225,225)"><circle class="pieOuterCircle" r="186" cy="0" cx="0"></circle><path class="pieCircle" fill="#0b0000" d="M0,-185A185,185,0,1,1,0,185L0,0Z"></path><path class="pieCircle" fill="#4d1037" d="M0,185A185,185,0,0,1,-185,0L0,0Z"></path><path class="pieCircle" fill="#3f5258" d="M-185,0A185,185,0,0,1,-126.641,-134.859L0,0Z"></path><path class="pieCircle" fill="#4f2f1b" d="M-126.641,-134.859A185,185,0,0,1,0,-185L0,0Z"></path><text style="text-anchor: middle;" class="slice" transform="translate(138.75,3.0808688933348094e-14)">50%</text><text style="text-anchor: middle;" class="slice" transform="translate(-98.11106588963355,98.11106588963338)">25%</text><text style="text-anchor: middle;" class="slice" transform="translate(-127.33845431365232,-55.10426982557595)">13%</text><text style="text-anchor: middle;" class="slice" transform="translate(-51.07728168499904,-129.0064874169949)">12%</text><text class="pieTitleText" y="-200" x="0">Informatics</text><g transform="translate(216,-44)" class="legend"><rect style="fill: rgb(11, 0, 0); stroke: rgb(11, 0, 0);" height="18" width="18"></rect><text y="14" x="22">Rest</text></g><g transform="translate(216,-22)" class="legend"><rect style="fill: rgb(77, 16, 55); stroke: rgb(77, 16, 55);" height="18" width="18"></rect><text y="14" x="22">Automata</text></g><g transform="translate(216,0)" class="legend"><rect style="fill: rgb(63, 82, 88); stroke: rgb(63, 82, 88);" height="18" width="18"></rect><text y="14" x="22">Statistical Analysis</text></g><g transform="translate(216,22)" class="legend"><rect style="fill: rgb(79, 47, 27); stroke: rgb(79, 47, 27);" height="18" width="18"></rect><text y="14" x="22">Planning</text></g></g></svg>